<svg width="15" height="15" viewBox="0 0 15 15" fill="none" xmlns="http://www.w3.org/2000/svg">
<path d="M14.865 14.3299L10.6548 10.0961C11.6966 8.90933 12.236 7.36397 12.159 5.78672C12.0821 4.20948 11.3948 2.72396 10.2425 1.64422C9.09022 0.564482 7.56321 -0.0248531 5.98429 0.00080393C4.40538 0.026461 2.89832 0.6651 1.78171 1.78171C0.665099 2.89832 0.026461 4.40538 0.000803929 5.98429C-0.0248531 7.56321 0.564482 9.09022 1.64422 10.2425C2.72396 11.3948 4.20948 12.0821 5.78672 12.159C7.36397 12.236 8.90933 11.6966 10.0961 10.6548L14.3299 14.8808C14.3652 14.9184 14.4079 14.9484 14.4553 14.9689C14.5026 14.9894 14.5537 15 14.6053 15C14.657 15 14.708 14.9894 14.7554 14.9689C14.8028 14.9484 14.8454 14.9184 14.8808 14.8808C14.9174 14.8444 14.9462 14.8009 14.9654 14.7529C14.9845 14.7049 14.9937 14.6535 14.9922 14.6019C14.9907 14.5503 14.9787 14.4995 14.9568 14.4527C14.9349 14.4059 14.9037 14.3641 14.865 14.3299ZM6.09052 11.3788C5.04771 11.3788 4.02831 11.0696 3.16124 10.4902C2.29417 9.91089 1.61837 9.08742 1.2193 8.12399C0.820235 7.16055 0.715821 6.10041 0.919264 5.07763C1.12271 4.05486 1.62487 3.11537 2.36225 2.37799C3.09963 1.64061 4.03912 1.13845 5.0619 0.935003C6.08467 0.73156 7.14481 0.835974 8.10825 1.23504C9.07168 1.63411 9.89515 2.30991 10.4745 3.17698C11.0539 4.04405 11.3631 5.06345 11.3631 6.10626C11.361 7.50399 10.8048 8.84389 9.81649 9.83223C8.82815 10.8206 7.48826 11.3767 6.09052 11.3788Z" fill="#3C3F40"/>
</svg>
